<?xml version="1.0" standalone="no"?>
<!DOCTYPE svg PUBLIC "-//W3C//DTD SVG 20010904//EN"
 "http://www.w3.org/TR/2001/REC-SVG-20010904/DTD/svg10.dtd">
<svg version="1.0" xmlns="http://www.w3.org/2000/svg"
 width="1280.000000pt" height="1280.000000pt" viewBox="0 0 1280.000000 1280.000000"
 preserveAspectRatio="xMidYMid meet">

<g transform="translate(0.000000,1280.000000) scale(0.100000,-0.100000)"
fill="#000000" stroke="none">
<path d="M4930 11102 c-696 -433 -1958 -1218 -2805 -1744 -847 -526 -1549
-964 -1560 -972 -18 -14 49 -15 653 -16 l672 0 0 -2665 0 -2665 -396 0 c-253
0 -402 -4 -415 -10 -17 -10 -19 -23 -19 -153 0 -98 4 -147 12 -155 17 -17
2989 -17 3006 0 8 8 12 57 12 155 0 130 -2 143 -19 153 -13 6 -162 10 -415 10
l-396 0 0 2659 0 2659 1213 -5 c666 -2 1218 -6 1225 -8 10 -4 12 -539 10
-2652 l-3 -2648 -399 -3 c-354 -2 -402 -4 -418 -19 -16 -14 -18 -33 -18 -149
0 -107 3 -136 16 -148 14 -14 164 -16 1503 -16 1429 0 1489 1 1504 18 24 26
25 257 1 290 l-15 22 -405 0 -404 0 0 2649 0 2648 1108 -4 c609 -3 1113 -6
1120 -8 10 -4 12 -537 10 -2642 l-3 -2638 -399 -3 c-354 -2 -402 -4 -418 -19
-16 -14 -18 -33 -18 -149 0 -107 3 -136 16 -148 14 -14 164 -16 1503 -16 1429
0 1489 1 1504 18 24 26 25 257 1 290 l-15 22 -405 0 -404 0 0 2640 0 2640 793
-6 c539 -5 789 -3 782 4 -5 5 -752 448 -1660 984 -907 536 -2261 1336 -3007
1777 -746 440 -1363 803 -1370 806 -7 2 -582 -350 -1278 -783z m1565 -512
c206 -65 370 -206 460 -395 48 -101 68 -193 68 -310 0 -550 -587 -904 -1088
-655 -156 77 -264 186 -339 343 -57 120 -71 179 -71 312 0 137 14 193 76 320
98 201 272 340 494 397 99 25 301 19 400 -12z"/>
<path d="M6270 10267 l0 -54 -55 -12 c-96 -22 -145 -82 -145 -178 0 -90 46
-143 149 -169 l46 -11 3 -92 3 -91 -38 0 c-21 0 -65 12 -98 25 -33 14 -61 25
-62 25 -2 0 -3 -24 -3 -54 l0 -54 63 -15 c34 -9 79 -19 100 -22 l37 -6 0 -69
c0 -62 2 -70 19 -70 23 0 34 39 29 102 l-3 43 44 7 c105 18 161 79 161 176 0
100 -33 144 -136 177 l-66 21 0 85 0 84 32 -3 c18 -2 51 -10 73 -18 22 -8 44
-14 49 -14 5 0 8 24 6 53 l-3 52 -80 15 c-68 14 -80 19 -77 35 2 10 1 33 -3
52 -4 24 -11 33 -25 33 -17 0 -20 -7 -20 -53z m0 -238 c0 -89 5 -85 -68 -58
-28 11 -46 50 -38 83 7 28 48 55 84 56 21 0 22 -4 22 -81z m105 -213 c85 -36
64 -133 -33 -152 l-27 -5 0 85 c0 95 1 96 60 72z"/>
<path d="M1017 2432 c-15 -16 -17 -50 -17 -274 0 -234 1 -256 18 -271 17 -16
399 -17 5295 -17 l5276 0 15 22 c24 33 24 503 0 536 l-15 22 -5278 0 c-5100 0
-5278 -1 -5294 -18z"/>
<path d="M1022 1724 c-22 -15 -22 -16 -22 -343 0 -267 3 -331 14 -347 14 -19
79 -19 5296 -19 5217 0 5282 0 5296 19 11 16 14 80 14 347 0 327 0 328 -22
343 -20 14 -538 16 -5288 16 -4750 0 -5268 -2 -5288 -16z"/>
</g>
</svg>
